<?xml version="1.0" encoding="utf-8"?>
<!-- Generator: Adobe Illustrator 27.2.0, SVG Export Plug-In . SVG Version: 6.00 Build 0)  -->
<svg version="1.1" id="Layer_1" xmlns="http://www.w3.org/2000/svg" xmlns:xlink="http://www.w3.org/1999/xlink" x="0px" y="0px"
	 viewBox="0 0 354.47 83.34" style="enable-background:new 0 0 354.47 83.34;" xml:space="preserve">
<style type="text/css">
	.st0{fill:none;stroke:#6D8C96;stroke-miterlimit:10;}
	.st1{fill:#6C8C96;}
</style>
<g>
	<path d="M35.5,9.4h-3.09h-0.74c-2.04,0-3.06-0.87-3.06-2.62c0-1.09,0.42-2.02,1.26-2.77s1.86-1.13,3.06-1.13h0.74h11.1
		c3.59,0,6.36,0.79,8.31,2.36C55.03,6.81,56,9.06,56,11.97c0,2.51-0.73,4.77-2.2,6.78s-3.43,3.43-5.89,4.29c3.33,1.62,5,4.41,5,8.36
		c0,2.53-0.69,5.02-2.06,7.45c-1.38,2.43-3.19,4.38-5.45,5.84c-3.04,1.97-7.63,2.95-13.78,2.95h-4.02l-0.33,0.77
		C26,51.23,25,53.23,24.27,54.39s-1.67,2.28-2.82,3.33c-3.04,2.79-6.51,4.18-10.41,4.18c-3.19,0-5.83-0.95-7.91-2.84
		S0,54.76,0,51.82c0-1.88,0.45-3.62,1.34-5.23s2.1-2.87,3.64-3.76c1.99-1.15,4.68-1.72,8.09-1.72h9.54L35.5,9.4z M19.95,47.64h-7.11
		c-3.57,0-5.36,1.28-5.36,3.83c0,1.02,0.39,1.89,1.16,2.6s1.72,1.07,2.83,1.07c1.66,0,3.23-0.66,4.73-1.98S18.95,49.99,19.95,47.64z
		 M30.28,41.11h2.21c3.9,0,6.86-0.67,8.88-2.02c1.29-0.86,2.35-2.03,3.16-3.53c0.81-1.49,1.22-3,1.22-4.51
		c0-1.79-0.53-3.04-1.6-3.77c-1.07-0.73-2.92-1.09-5.56-1.09h-2.27L30.28,41.11z M38.98,19.65l1.64-0.03c2.55,0,4.48-0.59,5.79-1.78
		c0.69-0.62,1.27-1.42,1.74-2.41c0.46-0.98,0.7-1.89,0.7-2.73c0-1.51-0.67-2.51-2-3.01c-0.53-0.2-1.62-0.3-3.28-0.3h-0.41
		L38.98,19.65z"/>
	<path d="M62.78,22.77l-0.93,2.3c-0.84,2.04-1.93,3.06-3.28,3.06c-0.82,0-1.5-0.25-2.05-0.74c-0.55-0.49-0.82-1.1-0.82-1.83
		c0-0.42,0.2-1.13,0.6-2.13l3.09-7.63c0.75-1.84,1.8-2.76,3.17-2.76c1.35,0,2.18,0.64,2.49,1.91l0.22,0.85
		c0.11,0.44,0.27,0.71,0.49,0.82c0.22,0.11,0.76,0.16,1.61,0.16h6.4c2.39,0,3.58,0.84,3.58,2.51c0,2.31-1.51,3.47-4.54,3.47
		l-0.3,0.27c-2.9,2.77-4.35,4.91-4.35,6.42s0.84,2.27,2.51,2.27h3.44c2.31,0,3.47,0.8,3.47,2.41c0,1.13-0.41,2-1.22,2.62
		c-0.81,0.62-1.95,0.93-3.4,0.93h-5.36c-1.82,0-3.31-0.63-4.47-1.89s-1.74-2.89-1.74-4.89c0-1.28,0.31-2.51,0.93-3.72
		c0.62-1.2,1.71-2.68,3.28-4.43H62.78z"/>
	<path d="M91.45,16.4c2.64,0,4.81,0.84,6.52,2.51c1.7,1.68,2.56,3.81,2.56,6.4c0,1.95-0.45,3.89-1.34,5.81
		c-0.89,1.92-2.05,3.46-3.47,4.61c-0.95,0.75-1.93,1.26-2.94,1.54c-1.01,0.28-2.43,0.42-4.25,0.42c-2.97,0-4.97-0.36-6.01-1.07
		c-2.44-1.68-3.66-4.15-3.66-7.43c0-3.46,1.25-6.46,3.74-8.99C85.09,17.67,88.04,16.4,91.45,16.4z M90.8,22.22
		c-1.35,0-2.58,0.67-3.69,2c-1.11,1.33-1.67,2.8-1.67,4.4c0,2.11,1.18,3.17,3.55,3.17c1.38,0,2.45-0.43,3.2-1.28
		c1.24-1.4,1.86-3.01,1.86-4.81c0-1.04-0.3-1.88-0.9-2.51C92.55,22.54,91.76,22.22,90.8,22.22z"/>
	<path d="M120.64,31.73h3.01c2.3,0,3.44,0.8,3.44,2.41c0,1.11-0.41,1.98-1.23,2.61c-0.82,0.63-1.95,0.94-3.39,0.94h-3.5
		c-1.57,0-2.63-0.61-3.2-1.83c-1.37,1.22-2.69,1.83-3.96,1.83h-3.12c-2,0-3.62-0.72-4.85-2.15s-1.84-3.3-1.84-5.62
		c0-3.5,1.21-6.63,3.62-9.39c2.41-2.76,5.14-4.14,8.19-4.14c2.33,0,4.04,0.81,5.11,2.43c0.91-1.37,2.1-2.05,3.58-2.05
		c0.8,0,1.47,0.26,2.01,0.77s0.81,1.14,0.81,1.89c0,0.51-0.15,1.12-0.44,1.83l-0.3,0.74L120.64,31.73z M110.72,31.87h0.68
		c1.49,0,2.49-0.61,2.98-1.83l1.91-4.73c0.26-0.62,0.38-1.14,0.38-1.56c0-0.49-0.24-0.92-0.72-1.28c-0.48-0.36-1.06-0.55-1.74-0.55
		c-1.33,0-2.62,0.77-3.88,2.32c-1.26,1.55-1.89,3.15-1.89,4.81C108.45,30.93,109.21,31.87,110.72,31.87z"/>
	<path d="M146.91,31.73h3.12c2.31,0,3.47,0.81,3.47,2.43c0,1.11-0.41,1.98-1.23,2.6c-0.82,0.62-1.95,0.93-3.39,0.93h-3.69
		c-1.42,0-2.46-0.58-3.12-1.75c-1.17,1.17-2.41,1.75-3.74,1.75h-3.47c-2.02,0-3.64-0.69-4.85-2.08s-1.82-3.23-1.82-5.52
		c0-3.52,1.2-6.68,3.59-9.48c2.4-2.81,5.09-4.21,8.08-4.21c2.2,0,3.96,0.79,5.28,2.38l6.09-14.95c1.04-2.55,2.49-3.83,4.35-3.83
		c0.78,0,1.45,0.25,2,0.75s0.82,1.12,0.82,1.84c0,0.56-0.14,1.2-0.41,1.91l-0.33,0.74L146.91,31.73z M136.9,31.87h1.04
		c1.26,0,2.09-0.5,2.49-1.5l2.05-5.06c0.26-0.62,0.38-1.09,0.38-1.42c0-0.55-0.23-1.01-0.7-1.39c-0.46-0.38-1.04-0.57-1.74-0.57
		c-1.42,0-2.75,0.79-3.98,2.38c-1.23,1.59-1.84,3.3-1.84,5.14C134.61,31.06,135.37,31.87,136.9,31.87z"/>
	<path d="M187.57,21.51l2.51,3.17l1.45,1.75c2.81,3.46,4.21,7.12,4.21,10.99c0,3.75-1.24,7.04-3.72,9.87
		c-3.39,3.88-7.83,5.82-13.31,5.82c-4.25,0-7.73-1.31-10.44-3.92s-4.07-5.96-4.07-10.04c0-4.99,2.11-9.16,6.34-12.49
		c2.24-1.77,4.31-2.65,6.2-2.65c0.98,0,1.79,0.28,2.41,0.85s0.93,1.29,0.93,2.19c0,1.2-0.71,2.24-2.13,3.12l-2.19,1.34
		c-1.26,0.78-2.3,1.88-3.14,3.28c-0.84,1.4-1.26,2.79-1.26,4.15c0,2.17,0.73,3.96,2.2,5.37c1.47,1.41,3.33,2.12,5.59,2.12
		c2.5,0,4.66-0.93,6.5-2.8c1.84-1.87,2.76-4.07,2.76-6.6c0-1.6-0.37-3.06-1.12-4.37s-2.36-3.34-4.84-6.09
		c-1.73-1.91-2.97-3.59-3.72-5.03h-7.38c-2.51,0-3.77-0.87-3.77-2.6c0-1.26,0.44-2.23,1.33-2.91c0.88-0.68,2.13-1.02,3.73-1.02h4.67
		c0.36-3.61,2.01-6.59,4.95-8.95s6.45-3.54,10.55-3.54c3.08,0,5.59,0.85,7.53,2.54s2.91,3.89,2.91,6.59c0,3.59-1.54,6.34-4.62,8.25
		c-1.75,1.09-4.53,1.64-8.34,1.64H187.57z M184.29,14.98h6.56c3.7,0,5.55-1.08,5.55-3.23c0-0.84-0.38-1.51-1.13-2.02
		c-0.76-0.51-1.76-0.77-3.02-0.77c-1.97,0-3.76,0.61-5.37,1.83C185.26,12.02,184.4,13.41,184.29,14.98z"/>
	<path d="M214.63,16.78h0.85c2.31,0,3.47,0.81,3.47,2.43c0,1.11-0.41,1.98-1.23,2.6c-0.82,0.62-1.95,0.93-3.39,0.93h-2l-3.66,8.99
		h3.06c2.31,0,3.47,0.81,3.47,2.43c0,1.11-0.41,1.98-1.22,2.6c-0.81,0.62-1.95,0.93-3.4,0.93h-4.89c-1.38,0-2.48-0.32-3.29-0.96
		c-0.81-0.64-1.22-1.5-1.22-2.6c0-0.67,0.16-1.42,0.49-2.24l0.52-1.2l3.23-7.95h-0.41c-2.04,0-3.06-0.79-3.06-2.38
		c0-1.13,0.41-2.01,1.22-2.64c0.81-0.63,1.95-0.94,3.4-0.94h1.26l1.45-3.58l0.3-0.74c0.86-2.02,2.2-3.03,4.05-3.03
		c0.75,0,1.39,0.25,1.93,0.75c0.54,0.5,0.81,1.11,0.81,1.82c0,0.69-0.24,1.57-0.71,2.62L214.63,16.78z"/>
	<path d="M223.16,30.8c1.04,0,1.93,0.37,2.68,1.12c0.75,0.75,1.12,1.64,1.12,2.68c0,1.06-0.37,1.96-1.12,2.71
		c-0.75,0.75-1.64,1.12-2.68,1.12c-1.06,0-1.96-0.37-2.71-1.12c-0.75-0.75-1.12-1.65-1.12-2.71c0-1.04,0.37-1.93,1.12-2.68
		C221.2,31.18,222.1,30.8,223.16,30.8z"/>
	<path d="M255.66,9.4h-3.09h-0.74c-2.04,0-3.06-0.87-3.06-2.62c0-1.09,0.42-2.02,1.26-2.77c0.84-0.76,1.86-1.13,3.06-1.13h0.74h11.1
		c3.59,0,6.36,0.79,8.31,2.36c1.95,1.58,2.92,3.82,2.92,6.74c0,2.51-0.73,4.77-2.2,6.78s-3.43,3.43-5.89,4.29
		c3.33,1.62,5,4.41,5,8.36c0,2.53-0.69,5.02-2.06,7.45c-1.38,2.43-3.19,4.38-5.45,5.84c-3.04,1.97-7.63,2.95-13.78,2.95h-4.02
		l-0.33,0.77c-1.28,2.82-2.28,4.82-3.01,5.99c-0.73,1.17-1.67,2.28-2.82,3.33c-3.04,2.79-6.51,4.18-10.41,4.18
		c-3.19,0-5.83-0.95-7.91-2.84s-3.13-4.31-3.13-7.24c0-1.88,0.45-3.62,1.34-5.23s2.1-2.87,3.64-3.76c1.99-1.15,4.68-1.72,8.09-1.72
		h9.54L255.66,9.4z M240.11,47.64h-7.11c-3.57,0-5.36,1.28-5.36,3.83c0,1.02,0.39,1.89,1.16,2.6s1.72,1.07,2.83,1.07
		c1.66,0,3.23-0.66,4.73-1.98C237.86,51.83,239.11,49.99,240.11,47.64z M250.44,41.11h2.21c3.9,0,6.86-0.67,8.88-2.02
		c1.29-0.86,2.35-2.03,3.16-3.53c0.81-1.49,1.22-3,1.22-4.51c0-1.79-0.53-3.04-1.6-3.77c-1.07-0.73-2.92-1.09-5.56-1.09h-2.27
		L250.44,41.11z M259.13,19.65l1.64-0.03c2.55,0,4.48-0.59,5.79-1.78c0.69-0.62,1.27-1.42,1.74-2.41s0.7-1.89,0.7-2.73
		c0-1.51-0.67-2.51-2-3.01c-0.53-0.2-1.62-0.3-3.28-0.3h-0.41L259.13,19.65z"/>
	<path d="M282.94,22.77l-0.93,2.3c-0.84,2.04-1.93,3.06-3.28,3.06c-0.82,0-1.5-0.25-2.05-0.74c-0.55-0.49-0.82-1.1-0.82-1.83
		c0-0.42,0.2-1.13,0.6-2.13l3.09-7.63c0.75-1.84,1.8-2.76,3.17-2.76c1.35,0,2.18,0.64,2.49,1.91l0.22,0.85
		c0.11,0.44,0.27,0.71,0.49,0.82c0.22,0.11,0.76,0.16,1.61,0.16h6.4c2.39,0,3.58,0.84,3.58,2.51c0,2.31-1.51,3.47-4.54,3.47
		l-0.3,0.27c-2.9,2.77-4.35,4.91-4.35,6.42s0.84,2.27,2.51,2.27h3.44c2.31,0,3.47,0.8,3.47,2.41c0,1.13-0.41,2-1.22,2.62
		c-0.81,0.62-1.95,0.93-3.4,0.93h-5.36c-1.82,0-3.31-0.63-4.47-1.89c-1.16-1.26-1.74-2.89-1.74-4.89c0-1.28,0.31-2.51,0.93-3.72
		c0.62-1.2,1.71-2.68,3.28-4.43H282.94z"/>
	<path d="M305.52,29.68c0,1.37,1.03,2.05,3.09,2.05h8.12c2.3,0,3.44,0.81,3.44,2.43c0,1.11-0.41,1.98-1.22,2.6
		c-0.81,0.62-1.95,0.93-3.4,0.93h-7.73c-2.88,0-5.07-0.71-6.57-2.13s-2.25-3.5-2.25-6.23c0-3.52,1.19-6.55,3.57-9.1
		s5.21-3.83,8.49-3.83c2.39,0,4.3,0.62,5.75,1.87s2.17,2.89,2.17,4.93c0,2.46-1,4.28-3.01,5.47c-1.11,0.67-2.77,1.01-4.97,1.01
		H305.52z M306.83,24.71h3.01c1.95,0,2.9-0.43,2.84-1.28c-0.05-0.97-0.68-1.45-1.89-1.45C309.12,21.97,307.79,22.89,306.83,24.71z"
		/>
	<path d="M341.16,27.52l6.42-8.36l0.52-0.66c1.08-1.4,2.26-2.1,3.55-2.1c0.82,0,1.49,0.27,2.02,0.81c0.53,0.54,0.79,1.22,0.79,2.04
		c0,0.86-0.56,1.99-1.67,3.39l-10.25,12.9c-1.35,1.69-2.74,2.54-4.18,2.54c-1.18,0-2.19-0.45-3.01-1.34s-1.23-1.99-1.23-3.28
		c0-0.33,0.03-0.67,0.08-1.01l0.9-4.92l-5.58,8.01c-1.17,1.69-2.46,2.54-3.88,2.54c-1.22,0-2.22-0.47-3.01-1.42
		c-0.78-0.95-1.18-2.17-1.18-3.66c0-0.22,0.01-0.4,0.03-0.55l0.77-11.45c0.11-1.48,0.5-2.61,1.16-3.4c0.67-0.79,1.57-1.19,2.72-1.19
		c1.71,0,2.57,0.94,2.57,2.82c0,0.31-0.02,0.66-0.05,1.04l-0.77,7.65l6.09-8.72c1.29-1.86,2.8-2.79,4.51-2.79
		c1.06,0,1.89,0.3,2.51,0.9c0.62,0.6,0.93,1.41,0.93,2.43c0,0.42-0.01,0.73-0.03,0.93L341.16,27.52z"/>
</g>
<g>
	<line class="st0" x1="135.83" y1="72.44" x2="17.85" y2="72.44"/>
	<line class="st0" x1="336.62" y1="72.44" x2="218.64" y2="72.44"/>
</g>
<g>
	<path class="st1" d="M146.47,73.94v-0.68c0-5.25,3.24-8.86,8.11-8.86c3.97,0,6.65,2.33,7.25,5.67h-2.31
		c-0.68-2.26-2.41-3.66-4.97-3.66c-3.59,0-5.75,2.81-5.75,6.85v0.68c0,4.04,2.21,6.88,5.8,6.88c2.89,0,4.54-1.81,5.02-3.94h2.33
		c-0.63,3.26-3.16,5.95-7.35,5.95C149.73,82.83,146.47,79.26,146.47,73.94z"/>
	<path class="st1" d="M176.61,82.52l-1.81-4.82h-7.98l-1.83,4.82h-2.31l6.95-17.82h2.44l6.95,17.82H176.61z M167.52,75.8h6.55
		l-3.26-8.66L167.52,75.8z"/>
	<path class="st1" d="M181.57,82.52V64.7h11.19v1.96h-8.94v6h8.13v1.93h-8.13v7.93H181.57z"/>
	<path class="st1" d="M196.08,82.52V64.7h11.82v1.96h-9.56v5.77h8.79v1.96h-8.79v6.17H208v1.96H196.08z"/>
</g>
</svg>
